<mxfile host="app.diagrams.net" agent="Mozilla/5.0 (Windows NT 10.0; Win64; x64) AppleWebKit/537.36 (KHTML, like Gecko) Chrome/137.0.0.0 Safari/537.36" version="27.1.6">
  <diagram name="Seite-1" id="WWnLsyigQAAQIWaR-GG6">
    <mxGraphModel dx="2592" dy="961" grid="1" gridSize="10" guides="1" tooltips="1" connect="1" arrows="1" fold="1" page="1" pageScale="1" pageWidth="827" pageHeight="1169" math="0" shadow="0">
      <root>
        <mxCell id="0" />
        <mxCell id="1" parent="0" />
        <mxCell id="mXy3kpWHTt3PuYFZWzsv-1" value="&amp;lt;&amp;lt;device&amp;gt;&amp;gt;&lt;br&gt;:Server" style="verticalAlign=top;align=center;spacingTop=8;spacingLeft=2;spacingRight=12;shape=cube;size=10;direction=south;fontStyle=4;html=1;whiteSpace=wrap;" vertex="1" parent="1">
          <mxGeometry x="110" y="70" width="210" height="210" as="geometry" />
        </mxCell>
        <mxCell id="mXy3kpWHTt3PuYFZWzsv-2" value="&amp;lt;&amp;lt;execution environment&amp;gt;&amp;gt;&lt;br&gt;:Sprong Boot Application" style="verticalAlign=top;align=center;spacingTop=8;spacingLeft=2;spacingRight=12;shape=cube;size=10;direction=south;fontStyle=4;html=1;whiteSpace=wrap;" vertex="1" parent="1">
          <mxGeometry x="120" y="130" width="180" height="130" as="geometry" />
        </mxCell>
        <mxCell id="mXy3kpWHTt3PuYFZWzsv-4" value="Ro-Co.jar" style="html=1;dropTarget=0;whiteSpace=wrap;" vertex="1" parent="1">
          <mxGeometry x="140" y="190" width="120" height="60" as="geometry" />
        </mxCell>
        <mxCell id="mXy3kpWHTt3PuYFZWzsv-5" value="" style="shape=module;jettyWidth=8;jettyHeight=4;" vertex="1" parent="mXy3kpWHTt3PuYFZWzsv-4">
          <mxGeometry x="1" width="20" height="20" relative="1" as="geometry">
            <mxPoint x="-27" y="7" as="offset" />
          </mxGeometry>
        </mxCell>
        <mxCell id="mXy3kpWHTt3PuYFZWzsv-6" value="&amp;lt;&amp;lt;device&amp;gt;&amp;gt;&lt;br&gt;:Server" style="verticalAlign=top;align=center;spacingTop=8;spacingLeft=2;spacingRight=12;shape=cube;size=10;direction=south;fontStyle=4;html=1;whiteSpace=wrap;" vertex="1" parent="1">
          <mxGeometry x="350" y="69" width="210" height="210" as="geometry" />
        </mxCell>
        <mxCell id="mXy3kpWHTt3PuYFZWzsv-7" value="MongoDB" style="html=1;dropTarget=0;whiteSpace=wrap;" vertex="1" parent="1">
          <mxGeometry x="390" y="159" width="120" height="60" as="geometry" />
        </mxCell>
        <mxCell id="mXy3kpWHTt3PuYFZWzsv-8" value="" style="shape=module;jettyWidth=8;jettyHeight=4;" vertex="1" parent="mXy3kpWHTt3PuYFZWzsv-7">
          <mxGeometry x="1" width="20" height="20" relative="1" as="geometry">
            <mxPoint x="-27" y="7" as="offset" />
          </mxGeometry>
        </mxCell>
        <mxCell id="mXy3kpWHTt3PuYFZWzsv-9" value="&amp;lt;&amp;lt;device&amp;gt;&amp;gt;&lt;br&gt;:Server" style="verticalAlign=top;align=center;spacingTop=8;spacingLeft=2;spacingRight=12;shape=cube;size=10;direction=south;fontStyle=4;html=1;whiteSpace=wrap;" vertex="1" parent="1">
          <mxGeometry x="-130" y="69" width="210" height="210" as="geometry" />
        </mxCell>
        <mxCell id="mXy3kpWHTt3PuYFZWzsv-10" value="&amp;lt;&amp;lt;execution environment&amp;gt;&amp;gt;&lt;br&gt;:&lt;span style=&quot;&quot; data-end=&quot;156&quot; data-start=&quot;135&quot;&gt;static web server(serve)&lt;/span&gt;" style="verticalAlign=top;align=center;spacingTop=8;spacingLeft=2;spacingRight=12;shape=cube;size=10;direction=south;fontStyle=4;html=1;whiteSpace=wrap;" vertex="1" parent="1">
          <mxGeometry x="-120" y="130" width="180" height="130" as="geometry" />
        </mxCell>
        <mxCell id="mXy3kpWHTt3PuYFZWzsv-11" value="&amp;lt;&amp;lt;device&amp;gt;&amp;gt;&lt;br&gt;:Smartphone, Tablet, PC" style="verticalAlign=top;align=center;spacingTop=8;spacingLeft=2;spacingRight=12;shape=cube;size=10;direction=south;fontStyle=4;html=1;whiteSpace=wrap;" vertex="1" parent="1">
          <mxGeometry x="-420" y="70" width="210" height="210" as="geometry" />
        </mxCell>
        <mxCell id="mXy3kpWHTt3PuYFZWzsv-12" value="&amp;lt;&amp;lt;execution environment&amp;gt;&amp;gt;&lt;br&gt;:Web-Browser" style="verticalAlign=top;align=center;spacingTop=8;spacingLeft=2;spacingRight=12;shape=cube;size=10;direction=south;fontStyle=4;html=1;whiteSpace=wrap;" vertex="1" parent="1">
          <mxGeometry x="-410" y="131" width="180" height="130" as="geometry" />
        </mxCell>
        <mxCell id="mXy3kpWHTt3PuYFZWzsv-13" value="app.html" style="html=1;dropTarget=0;whiteSpace=wrap;" vertex="1" parent="1">
          <mxGeometry x="-395" y="181" width="120" height="60" as="geometry" />
        </mxCell>
        <mxCell id="mXy3kpWHTt3PuYFZWzsv-14" value="" style="shape=module;jettyWidth=8;jettyHeight=4;" vertex="1" parent="mXy3kpWHTt3PuYFZWzsv-13">
          <mxGeometry x="1" width="20" height="20" relative="1" as="geometry">
            <mxPoint x="-27" y="7" as="offset" />
          </mxGeometry>
        </mxCell>
        <mxCell id="mXy3kpWHTt3PuYFZWzsv-16" style="rounded=0;orthogonalLoop=1;jettySize=auto;html=1;exitX=0;exitY=0;exitDx=100;exitDy=0;exitPerimeter=0;entryX=0.473;entryY=1.004;entryDx=0;entryDy=0;entryPerimeter=0;endArrow=none;startFill=0;" edge="1" parent="1" source="mXy3kpWHTt3PuYFZWzsv-11" target="mXy3kpWHTt3PuYFZWzsv-9">
          <mxGeometry relative="1" as="geometry" />
        </mxCell>
        <mxCell id="mXy3kpWHTt3PuYFZWzsv-17" style="rounded=0;orthogonalLoop=1;jettySize=auto;html=1;exitX=0.443;exitY=0;exitDx=0;exitDy=0;exitPerimeter=0;entryX=0.434;entryY=1.009;entryDx=0;entryDy=0;entryPerimeter=0;endArrow=none;startFill=0;" edge="1" parent="1" source="mXy3kpWHTt3PuYFZWzsv-9" target="mXy3kpWHTt3PuYFZWzsv-1">
          <mxGeometry relative="1" as="geometry">
            <mxPoint x="-130" y="181" as="sourcePoint" />
            <mxPoint x="-106" y="180" as="targetPoint" />
          </mxGeometry>
        </mxCell>
        <mxCell id="mXy3kpWHTt3PuYFZWzsv-18" style="rounded=0;orthogonalLoop=1;jettySize=auto;html=1;exitX=0;exitY=0;exitDx=100;exitDy=0;exitPerimeter=0;entryX=0.484;entryY=1.01;entryDx=0;entryDy=0;entryPerimeter=0;endArrow=none;startFill=0;" edge="1" parent="1" source="mXy3kpWHTt3PuYFZWzsv-1" target="mXy3kpWHTt3PuYFZWzsv-6">
          <mxGeometry relative="1" as="geometry">
            <mxPoint x="100" y="191" as="sourcePoint" />
            <mxPoint x="128" y="190" as="targetPoint" />
          </mxGeometry>
        </mxCell>
        <mxCell id="mXy3kpWHTt3PuYFZWzsv-19" value="Might run on various servers for load balancing." style="whiteSpace=wrap;html=1;shape=mxgraph.basic.document" vertex="1" parent="1">
          <mxGeometry x="140" y="340" width="170" height="70" as="geometry" />
        </mxCell>
        <mxCell id="mXy3kpWHTt3PuYFZWzsv-20" style="rounded=0;orthogonalLoop=1;jettySize=auto;html=1;exitX=0.5;exitY=0;exitDx=0;exitDy=0;exitPerimeter=0;entryX=1.003;entryY=0.36;entryDx=0;entryDy=0;entryPerimeter=0;dashed=1;endArrow=none;startFill=0;" edge="1" parent="1" source="mXy3kpWHTt3PuYFZWzsv-19" target="mXy3kpWHTt3PuYFZWzsv-1">
          <mxGeometry relative="1" as="geometry" />
        </mxCell>
        <mxCell id="mXy3kpWHTt3PuYFZWzsv-21" style="rounded=0;orthogonalLoop=1;jettySize=auto;html=1;exitX=0.972;exitY=0.555;exitDx=0;exitDy=0;exitPerimeter=0;entryX=0.5;entryY=0;entryDx=0;entryDy=0;entryPerimeter=0;dashed=1;endArrow=none;startFill=0;" edge="1" parent="1" source="mXy3kpWHTt3PuYFZWzsv-6" target="mXy3kpWHTt3PuYFZWzsv-19">
          <mxGeometry relative="1" as="geometry">
            <mxPoint x="751" y="349" as="sourcePoint" />
            <mxPoint x="630" y="290" as="targetPoint" />
          </mxGeometry>
        </mxCell>
        <mxCell id="mXy3kpWHTt3PuYFZWzsv-22" style="rounded=0;orthogonalLoop=1;jettySize=auto;html=1;exitX=0.5;exitY=0;exitDx=0;exitDy=0;exitPerimeter=0;entryX=1.008;entryY=0.372;entryDx=0;entryDy=0;entryPerimeter=0;dashed=1;endArrow=none;startFill=0;" edge="1" parent="1" source="mXy3kpWHTt3PuYFZWzsv-19" target="mXy3kpWHTt3PuYFZWzsv-9">
          <mxGeometry relative="1" as="geometry">
            <mxPoint x="488" y="360" as="sourcePoint" />
            <mxPoint x="410" y="427" as="targetPoint" />
          </mxGeometry>
        </mxCell>
        <mxCell id="mXy3kpWHTt3PuYFZWzsv-23" value="RoCo&lt;br&gt;React app" style="html=1;dropTarget=0;whiteSpace=wrap;" vertex="1" parent="1">
          <mxGeometry x="-100" y="180" width="120" height="60" as="geometry" />
        </mxCell>
        <mxCell id="mXy3kpWHTt3PuYFZWzsv-24" value="" style="shape=module;jettyWidth=8;jettyHeight=4;" vertex="1" parent="mXy3kpWHTt3PuYFZWzsv-23">
          <mxGeometry x="1" width="20" height="20" relative="1" as="geometry">
            <mxPoint x="-27" y="7" as="offset" />
          </mxGeometry>
        </mxCell>
        <mxCell id="mXy3kpWHTt3PuYFZWzsv-25" value="&amp;lt;&amp;lt;device&amp;gt;&amp;gt;&lt;br&gt;:Server" style="verticalAlign=top;align=center;spacingTop=8;spacingLeft=2;spacingRight=12;shape=cube;size=10;direction=south;fontStyle=4;html=1;whiteSpace=wrap;" vertex="1" parent="1">
          <mxGeometry x="650" y="80" width="210" height="210" as="geometry" />
        </mxCell>
        <mxCell id="mXy3kpWHTt3PuYFZWzsv-27" value="Internal" style="shape=umlFrame;whiteSpace=wrap;html=1;pointerEvents=0;" vertex="1" parent="1">
          <mxGeometry x="-140" y="19" width="720" height="301" as="geometry" />
        </mxCell>
        <mxCell id="mXy3kpWHTt3PuYFZWzsv-28" value="&lt;div&gt;&lt;span style=&quot;font-size: 14px; letter-spacing: 0.285714px; text-align: left; white-space: pre; background-color: rgb(247, 247, 247);&quot;&gt;&lt;font style=&quot;color: rgb(0, 0, 0);&quot; face=&quot;Helvetica&quot;&gt;dicebear&lt;br&gt;API&lt;/font&gt;&lt;/span&gt;&lt;/div&gt;" style="html=1;dropTarget=0;whiteSpace=wrap;" vertex="1" parent="1">
          <mxGeometry x="690" y="166" width="120" height="60" as="geometry" />
        </mxCell>
        <mxCell id="mXy3kpWHTt3PuYFZWzsv-29" value="" style="shape=module;jettyWidth=8;jettyHeight=4;" vertex="1" parent="mXy3kpWHTt3PuYFZWzsv-28">
          <mxGeometry x="1" width="20" height="20" relative="1" as="geometry">
            <mxPoint x="-27" y="7" as="offset" />
          </mxGeometry>
        </mxCell>
        <mxCell id="mXy3kpWHTt3PuYFZWzsv-30" style="edgeStyle=orthogonalEdgeStyle;rounded=0;orthogonalLoop=1;jettySize=auto;html=1;exitX=0;exitY=0;exitDx=100;exitDy=0;exitPerimeter=0;entryX=0.423;entryY=0.989;entryDx=0;entryDy=0;entryPerimeter=0;endArrow=none;endFill=1;startArrow=classic;startFill=0;" edge="1" parent="1" source="mXy3kpWHTt3PuYFZWzsv-6" target="mXy3kpWHTt3PuYFZWzsv-25">
          <mxGeometry relative="1" as="geometry" />
        </mxCell>
      </root>
    </mxGraphModel>
  </diagram>
</mxfile>
